<svg xmlns="http://www.w3.org/2000/svg" xmlns:xlink="http://www.w3.org/1999/xlink" width="500" zoomAndPan="magnify" viewBox="0 0 375 374.999991" height="500" preserveAspectRatio="xMidYMid meet" version="1.0"><defs><g/><clipPath id="f549870adc"><path d="M 182.816406 209.179688 L 274.648438 209.179688 L 274.648438 236.824219 L 182.816406 236.824219 Z M 182.816406 209.179688 " clip-rule="nonzero"/></clipPath></defs><g fill="#ff3131" fill-opacity="1"><g transform="translate(113.44773, 237.277306)"><g><path d="M 8.625 0 L 8.625 -99.15625 L 29.578125 -99.15625 L 29.578125 -58.25 L 72.140625 -58.25 L 72.140625 -99.15625 L 93.0625 -99.15625 L 93.0625 0 L 72.140625 0 L 72.140625 -40.96875 L 29.578125 -40.96875 L 29.578125 0 Z M 8.625 0 "/></g></g></g><g clip-path="url(#f549870adc)"><path fill="#000000" d="M 182.816406 209.179688 L 274.648438 209.179688 L 274.648438 236.824219 L 182.816406 236.824219 Z M 182.816406 209.179688 " fill-opacity="1" fill-rule="nonzero"/></g><g fill="#ffffff" fill-opacity="1"><g transform="translate(184.088546, 229.315101)"><g><path d="M 11.765625 -3.25 L 4.734375 -3.25 L 3.390625 0 L -0.1875 0 L 6.5625 -15.140625 L 10.015625 -15.140625 L 16.796875 0 L 13.109375 0 Z M 10.671875 -5.90625 L 8.265625 -11.703125 L 5.859375 -5.90625 Z M 10.671875 -5.90625 "/></g></g></g><g fill="#ffffff" fill-opacity="1"><g transform="translate(202.400044, 229.315101)"><g><path d="M 1.796875 -15.140625 L 5.296875 -15.140625 L 5.296875 0 L 1.796875 0 Z M 1.796875 -15.140625 "/></g></g></g><g fill="#ffffff" fill-opacity="1"><g transform="translate(211.231127, 229.315101)"><g><path d="M 4.9375 -12.296875 L 0.09375 -12.296875 L 0.09375 -15.140625 L 13.28125 -15.140625 L 13.28125 -12.296875 L 8.4375 -12.296875 L 8.4375 0 L 4.9375 0 Z M 4.9375 -12.296875 "/></g></g></g><g fill="#ffffff" fill-opacity="1"><g transform="translate(226.3392, 229.315101)"><g><path d="M 1.796875 -15.140625 L 5.296875 -15.140625 L 5.296875 0 L 1.796875 0 Z M 1.796875 -15.140625 "/></g></g></g><g fill="#ffffff" fill-opacity="1"><g transform="translate(235.170281, 229.315101)"><g><path d="M 11.765625 -3.25 L 4.734375 -3.25 L 3.390625 0 L -0.1875 0 L 6.5625 -15.140625 L 10.015625 -15.140625 L 16.796875 0 L 13.109375 0 Z M 10.671875 -5.90625 L 8.265625 -11.703125 L 5.859375 -5.90625 Z M 10.671875 -5.90625 "/></g></g></g><g fill="#ffffff" fill-opacity="1"><g transform="translate(253.481777, 229.315101)"><g><path d="M 15.6875 -15.140625 L 15.6875 0 L 12.8125 0 L 5.265625 -9.203125 L 5.265625 0 L 1.796875 0 L 1.796875 -15.140625 L 4.703125 -15.140625 L 12.234375 -5.953125 L 12.234375 -15.140625 Z M 15.6875 -15.140625 "/></g></g></g><path stroke-linecap="butt" transform="matrix(0.747342, 0, 0, 0.75, 182.067209, 234.572622)" fill="none" stroke-linejoin="miter" d="M -0.00107353 2.002129 L 123.441663 2.002129 " stroke="#ffffff" stroke-width="4" stroke-opacity="1" stroke-miterlimit="4"/></svg>